# xmcd
#
# Track frame offsets:
#	150
#	22149
#	46466
#	71159
#	92584
#	118402
#	143371
#	167067
#	186472
#	216896
#
# Disc length: 3201 seconds
#
# Revision: 1
# Processed by: cddbd v1.5.2PL0 Copyright (c) Steve Scherf et al.
# Submitted via: audiograbber 1.83.01
#
DISCID=970c7f0a
DTITLE=Dianne Reeves - When You Know
DYEAR=2005
DGENRE=Jazz
TTITLE0=Just My Imagination (Running Away With Me)
TTITLE1=Over The Weekend
TTITLE2=Lovin' You
TTITLE3=I'm In Love Again
TTITLE4=Midnight Sun
TTITLE5=Once I Loved
TTITLE6=Windmills Of Your Mind
TTITLE7=Social Call
TTITLE8=When You Know
TTITLE9=Today Will Be A Good Day
EXTD=
EXTT0=
EXTT1=
EXTT2=
EXTT3=
EXTT4=
EXTT5=
EXTT6=
EXTT7=
EXTT8=
EXTT9=
PLAYORDER=
